<svg version="1.1" id="bCircle" xmlns="http://www.w3.org/2000/svg" xmlns:xlink="http://www.w3.org/1999/xlink" x="0px" y="0px"
	viewBox="0 0 1030 917" style="enable-background:new 0 0 1030 917;" xml:space="preserve">
<style>
	#circleScale{
		-webkit-animation: circleScale 5s linear infinite alternate;
		        animation: circleScale 5s linear infinite alternate;
		-webkit-transform-origin: 50% 50%;
		    -ms-transform-origin: 50% 50%;
		        transform-origin: 50% 50%;
	}
	@-webkit-keyframes circleScale {
		0%{ -webkit-transform: scale(1); transform: scale(1);}
		100%{ -webkit-transform: scale(1.3); transform: scale(1.33);}
	}
	@keyframes circleScale {
		0%{ -webkit-transform: scale(1); transform: scale(1);}
		100%{ -webkit-transform: scale(1.3); transform: scale(1.33);}
	}

	#pointMove{
		-webkit-animation: pointMove 10s linear infinite;
		        animation: pointMove 10s linear infinite;
		-webkit-transform-origin: 50% 50%;
		    -ms-transform-origin: 50% 50%;
		        transform-origin: 50% 50%;
	}
	@-webkit-keyframes pointMove {
		0%{ -webkit-transform: rotate(0deg); transform: rotate(0deg);}
		100%{ -webkit-transform: rotate(360deg); transform: rotate(360deg);}
	}
	@keyframes pointMove {
		0%{ -webkit-transform: rotate(0deg); transform: rotate(0deg);}
		100%{ -webkit-transform: rotate(360deg); transform: rotate(360deg);}
	}

	#WordBreathe>:nth-child(1){
		-webkit-animation: WordIn 10s linear infinite;
		        animation: WordIn 10s linear infinite;
	}
	@-webkit-keyframes WordIn {
		0%, 50%{ opacity: 1; }
		50%{ opacity: 1;}
		51% {opacity: 0;}
		51%, 100%{opacity: 0;}
	}
	@keyframes WordIn {
		0%, 50%{ opacity: 1; }
		50%{ opacity: 1;}
		51% {opacity: 0;}
		51%, 100%{opacity: 0;}
	}

	#WordBreathe>:nth-child(2){
		-webkit-animation: WordOut 10s linear infinite;
		        animation: WordOut 10s linear infinite;
	}
	@-webkit-keyframes WordOut {
		0%, 50%{ opacity: 0; }
		50%{ opacity: 0;}
		51% {opacity:  1;}
		51%, 100%{opacity: 1;}
	}
	@keyframes WordOut {
		0%, 50%{ opacity: 0; }
		50%{ opacity: 0;}
		51% {opacity:  1;}
		51%, 100%{opacity: 1;}
	}
</style>
<style type="text/css">
   .st0{fill:url(#SVGID_1_);}
   .st1{fill:url(#SVGID_2_);}
   .st2{fill:#FFFFFF;}
   .st3{fill:#61C9E9;}
   .st4{fill:none;}
</style>
<g id="circleScale">
   <g>
	   
		   <linearGradient id="SVGID_1_" gradientUnits="userSpaceOnUse" x1="510.1371" y1="123.457" x2="517.7596" y2="649.4119" gradientTransform="matrix(1 0 0 -1 0 918)">
		   <stop  offset="0" style="stop-color:#950DFF"/>
		   <stop  offset="0.0666" style="stop-color:#8F23FC"/>
		   <stop  offset="0.2438" style="stop-color:#8158F6"/>
		   <stop  offset="0.4173" style="stop-color:#7585F1"/>
		   <stop  offset="0.5832" style="stop-color:#6BA7ED"/>
		   <stop  offset="0.7396" style="stop-color:#64C0EA"/>
		   <stop  offset="0.8826" style="stop-color:#60CFE9"/>
		   <stop  offset="1" style="stop-color:#5FD4E8"/>
	   </linearGradient>
	   <circle class="st0" cx="515" cy="459" r="169"/>
	   <g>
		   
			   <linearGradient id="SVGID_2_" gradientUnits="userSpaceOnUse" x1="284.9892" y1="458.2542" x2="864.9891" y2="461.7542" gradientTransform="matrix(1 0 0 -1 0 918)">
			   <stop  offset="0" style="stop-color:#950DFF"/>
			   <stop  offset="0.026" style="stop-color:#9218FE"/>
			   <stop  offset="0.1583" style="stop-color:#8549F8"/>
			   <stop  offset="0.2938" style="stop-color:#7974F3"/>
			   <stop  offset="0.4303" style="stop-color:#7097EF"/>
			   <stop  offset="0.5681" style="stop-color:#68B2EC"/>
			   <stop  offset="0.7076" style="stop-color:#63C5EA"/>
			   <stop  offset="0.8501" style="stop-color:#60D0E8"/>
			   <stop  offset="1" style="stop-color:#5FD4E8"/>
		   </linearGradient>
		   <path class="st1" d="M333.75,458.36c0-99.74,81.14-180.88,180.88-180.88s180.88,81.14,180.88,180.88s-81.14,180.88-180.88,180.88
			   S333.75,558.11,333.75,458.36z M514.64,274.5c-101.38,0-183.86,82.48-183.86,183.86s82.48,183.86,183.86,183.86
			   S698.5,559.74,698.5,458.36S616.02,274.5,514.64,274.5z"/>
		   <path class="st2" d="M506.2,274.73c0,0.09-0.01,0.18-0.01,0.27c0,4.39,3.56,7.95,7.95,7.95s7.95-3.56,7.95-7.95
			   c0-0.1-0.01-0.19-0.01-0.28C513.92,274.36,508.7,274.57,506.2,274.73"/>
		   <path class="st2" d="M506.2,642.02c0-0.09-0.01-0.18-0.01-0.27c0-4.39,3.56-7.95,7.95-7.95s7.95,3.56,7.95,7.95
			   c0,0.1-0.01,0.19-0.01,0.28C513.92,642.39,508.7,642.18,506.2,642.02"/>
	   </g>
	   <g id="WordBreathe">
		   <g>
			   <g>
				   <path class="st2" d="M450.06,443.94h1.78l-0.05,11.1h0.06c1.11-1.89,3.45-2.75,5.49-2.75c4.2,0,7.15,3.02,7.12,7.19
					   c0,4.17-3.03,7.19-7.23,7.19c-2.04,0-4.38-0.86-5.46-2.75h-0.06v2.4h-1.78L450.06,443.94z M457.25,465.07
					   c3.34,0,5.43-2.52,5.44-5.59c0.03-3.08-2.02-5.59-5.37-5.59c-3.23,0-5.73,2.52-5.76,5.59
					   C451.55,462.55,454.02,465.07,457.25,465.07z"/>
				   <path class="st2" d="M468.91,456.49c-0.02-1.01-0.13-3.14-0.13-3.85h1.78c0.02,1.01,0.05,2.13,0.12,2.4
					   c0.88-1.6,2.32-2.75,4.37-2.75c0.35,0,0.66,0.06,1.03,0.15l-0.21,1.75c-0.28-0.09-0.52-0.12-0.7-0.12
					   c-3.08,0-4.48,2.13-4.51,4.79l-0.03,7.46h-1.78L468.91,456.49z"/>
				   <path class="st2" d="M491.23,463.74c-1.41,2.07-3.51,2.93-5.94,2.93c-4.17,0-6.88-2.99-6.86-7.22
					   c0.01-4.08,2.89-7.16,6.88-7.16c4.2,0,6.38,3.23,6.36,6.39l-0.01,1.24h-11.49c-0.01,1.48,1.02,5.15,5.16,5.15
					   c1.81,0,3.69-0.95,4.59-2.43L491.23,463.74z M489.91,458.32c0-2.43-2.08-4.44-4.71-4.44c-3.88,0-5.01,3.73-5,4.44H489.91z"/>
				   <path class="st2" d="M506.7,460.57c0,2.66,0.03,4.17,0.24,5.74h-1.66c-0.12-0.68-0.17-1.45-0.15-2.22h-0.06
					   c-1.04,1.75-2.53,2.57-4.83,2.57c-2.34,0-4.8-1.15-4.78-4.05c0-4.17,4.89-4.59,7.58-4.59h2.07l0.01-0.83
					   c0.04-2.37-1.63-3.32-3.82-3.32c-1.6,0-2.95,0.5-4.17,1.54l-1.05-1.21c1.31-1.24,3.47-1.92,5.25-1.92
					   c3.32,0,5.44,1.48,5.4,4.94L506.7,460.57z M503.17,459.45c-2.96,0-5.94,0.74-5.95,3.08c-0.01,1.69,1.61,2.54,3.09,2.54
					   c3.79,0,4.76-2.43,4.79-4.71l0.02-0.92h-1.95V459.45z"/>
				   <path class="st2" d="M518.63,454.24h-3.91l-0.05,8.91c-0.01,1.21,0.7,1.92,1.89,1.92c0.68,0,1.39-0.21,2.01-0.47l0.16,1.6
					   c-0.68,0.24-1.65,0.47-2.33,0.47c-2.55,0-3.5-1.57-3.49-3.52l0.05-8.91H510l0.02-1.6h2.96l0.03-3.94h1.78l-0.03,3.94h3.91
					   L518.63,454.24z"/>
				   <path class="st2" d="M522.31,443.94h1.78l-0.05,11.1h0.06c0.71-1.51,2.47-2.75,4.69-2.75c4.26,0,5.18,2.9,5.17,5.89l-0.06,8.14
					   h-1.78l0.04-8.05c0.03-2.22-0.59-4.38-3.4-4.38c-2.63,0-4.76,1.83-4.79,5.59l-0.03,6.84h-1.78L522.31,443.94z"/>
				   <path class="st2" d="M551.19,463.74c-1.41,2.07-3.51,2.93-5.94,2.93c-4.17,0-6.88-2.99-6.86-7.22
					   c0.01-4.08,2.89-7.16,6.88-7.16c4.2,0,6.38,3.23,6.36,6.39l-0.01,1.24h-11.49c-0.01,1.48,1.02,5.15,5.16,5.15
					   c1.81,0,3.69-0.95,4.59-2.43L551.19,463.74z M549.87,458.32c0-2.43-2.08-4.44-4.71-4.44c-3.88,0-5,3.73-5,4.44H549.87z"/>
			   </g>
			   <g>
				   <path class="st2" d="M566.05,445.89c0.74,0,1.32,0.59,1.33,1.33c-0.02,0.74-0.62,1.33-1.36,1.33s-1.32-0.59-1.3-1.33
					   C564.71,446.48,565.31,445.89,566.05,445.89z M565.12,452.64h1.78l-0.09,13.67h-1.78L565.12,452.64z"/>
				   <path class="st2" d="M572.38,456.49c-0.02-1.01-0.13-3.14-0.13-3.85h1.78c0.02,1.01,0.05,2.13,0.11,2.4h0.09
					   c0.71-1.51,2.47-2.75,4.69-2.75c4.26,0,5.19,2.9,5.17,5.89l-0.06,8.14h-1.78l0.04-8.05c0.03-2.22-0.59-4.38-3.4-4.38
					   c-2.63,0-4.76,1.83-4.78,5.59l-0.03,6.84h-1.78L572.38,456.49z"/>
			   </g>
		   </g>
		   <g>
			   <g>
				   <path class="st2" d="M439.06,443.94h1.78l-0.05,11.1h0.06c1.11-1.89,3.45-2.75,5.49-2.75c4.2,0,7.15,3.02,7.12,7.19
					   c0,4.17-3.03,7.19-7.23,7.19c-2.04,0-4.38-0.86-5.46-2.75h-0.06v2.4h-1.78L439.06,443.94z M446.25,465.07
					   c3.34,0,5.43-2.52,5.44-5.59c0.03-3.08-2.02-5.59-5.37-5.59c-3.23,0-5.73,2.52-5.76,5.59
					   C440.55,462.55,443.02,465.07,446.25,465.07z"/>
				   <path class="st2" d="M457.91,456.49c-0.02-1.01-0.13-3.14-0.13-3.85h1.78c0.02,1.01,0.05,2.13,0.12,2.4
					   c0.88-1.6,2.32-2.75,4.37-2.75c0.35,0,0.66,0.06,1.03,0.15l-0.21,1.75c-0.28-0.09-0.52-0.12-0.7-0.12
					   c-3.08,0-4.48,2.13-4.51,4.79l-0.03,7.46h-1.78L457.91,456.49z"/>
				   <path class="st2" d="M480.23,463.74c-1.41,2.07-3.51,2.93-5.94,2.93c-4.17,0-6.88-2.99-6.86-7.22
					   c0.01-4.08,2.89-7.16,6.88-7.16c4.2,0,6.38,3.23,6.36,6.39l-0.01,1.24h-11.49c-0.01,1.48,1.02,5.15,5.16,5.15
					   c1.81,0,3.69-0.95,4.59-2.43L480.23,463.74z M478.91,458.32c0-2.43-2.08-4.44-4.71-4.44c-3.88,0-5.01,3.73-5,4.44H478.91z"/>
				   <path class="st2" d="M495.7,460.57c0,2.66,0.03,4.17,0.24,5.74h-1.66c-0.12-0.68-0.17-1.45-0.15-2.22h-0.06
					   c-1.04,1.75-2.53,2.57-4.83,2.57c-2.34,0-4.8-1.15-4.78-4.05c0-4.17,4.89-4.59,7.58-4.59h2.07l0.01-0.83
					   c0.04-2.37-1.63-3.32-3.82-3.32c-1.6,0-2.95,0.5-4.17,1.54l-1.05-1.21c1.31-1.24,3.47-1.92,5.25-1.92
					   c3.32,0,5.44,1.48,5.4,4.94L495.7,460.57z M492.17,459.45c-2.96,0-5.94,0.74-5.95,3.08c-0.01,1.69,1.61,2.54,3.09,2.54
					   c3.79,0,4.76-2.43,4.79-4.71l0.02-0.92h-1.95V459.45z"/>
				   <path class="st2" d="M507.63,454.24h-3.91l-0.05,8.91c-0.01,1.21,0.7,1.92,1.89,1.92c0.68,0,1.39-0.21,2.01-0.47l0.16,1.6
					   c-0.68,0.24-1.65,0.47-2.33,0.47c-2.55,0-3.5-1.57-3.49-3.52l0.05-8.91H499l0.02-1.6h2.96l0.03-3.94h1.78l-0.03,3.94h3.91
					   L507.63,454.24z"/>
				   <path class="st2" d="M511.31,443.94h1.78l-0.05,11.1h0.06c0.71-1.51,2.47-2.75,4.69-2.75c4.26,0,5.18,2.9,5.17,5.89l-0.06,8.14
					   h-1.78l0.04-8.05c0.03-2.22-0.59-4.38-3.4-4.38c-2.63,0-4.76,1.83-4.79,5.59l-0.03,6.84h-1.78L511.31,443.94z"/>
				   <path class="st2" d="M540.19,463.74c-1.41,2.07-3.51,2.93-5.94,2.93c-4.17,0-6.88-2.99-6.86-7.22
					   c0.01-4.08,2.89-7.16,6.88-7.16c4.2,0,6.38,3.23,6.36,6.39l-0.01,1.24h-11.49c-0.01,1.48,1.02,5.15,5.16,5.15
					   c1.81,0,3.69-0.95,4.59-2.43L540.19,463.74z M538.87,458.32c0-2.43-2.08-4.44-4.71-4.44c-3.88,0-5,3.73-5,4.44H538.87z"/>
			   </g>
			   <g>
				   <path class="st2" d="M565.19,459.53c0,1.08-0.19,2.07-0.56,2.99c-0.38,0.92-0.9,1.71-1.57,2.38s-1.47,1.19-2.39,1.57
					   c-0.92,0.38-1.95,0.56-3.06,0.56c-1.1,0-2.11-0.19-3.04-0.56c-0.93-0.38-1.72-0.9-2.39-1.57s-1.19-1.46-1.57-2.38
					   c-0.38-0.92-0.56-1.91-0.56-2.99c0-1.08,0.19-2.07,0.56-2.99c0.38-0.92,0.9-1.71,1.57-2.38s1.47-1.19,2.39-1.57
					   c0.92-0.38,1.94-0.56,3.04-0.56c1.12,0,2.14,0.19,3.06,0.56c0.93,0.38,1.72,0.9,2.39,1.57s1.19,1.46,1.57,2.38
					   C565.01,457.46,565.19,458.46,565.19,459.53z M563,459.53c0-0.79-0.13-1.53-0.38-2.23s-0.62-1.29-1.08-1.8
					   c-0.47-0.51-1.03-0.91-1.69-1.2c-0.66-0.29-1.41-0.44-2.24-0.44c-0.83,0-1.58,0.15-2.24,0.44c-0.66,0.29-1.22,0.7-1.68,1.2
					   c-0.46,0.51-0.81,1.11-1.07,1.8s-0.38,1.43-0.38,2.23s0.13,1.54,0.38,2.23s0.61,1.29,1.07,1.8c0.46,0.51,1.02,0.91,1.68,1.2
					   c0.66,0.29,1.41,0.44,2.24,0.44c0.83,0,1.58-0.15,2.24-0.44c0.66-0.29,1.22-0.7,1.69-1.2c0.47-0.51,0.83-1.11,1.08-1.8
					   S563,460.33,563,459.53z"/>
				   <path class="st2" d="M579.16,466.67c-0.04-0.39-0.07-0.77-0.08-1.14c-0.01-0.38-0.02-0.76-0.02-1.14h-0.06
					   c-0.22,0.39-0.51,0.74-0.85,1.07s-0.73,0.61-1.16,0.84c-0.43,0.23-0.88,0.42-1.36,0.55c-0.48,0.13-0.95,0.2-1.42,0.2
					   c-1.83,0-3.18-0.48-4.06-1.45c-0.88-0.97-1.31-2.34-1.31-4.13v-9.06h2.01v7.9c0,0.79,0.06,1.49,0.18,2.1
					   c0.12,0.61,0.33,1.12,0.63,1.54c0.29,0.42,0.69,0.73,1.19,0.95c0.5,0.21,1.12,0.32,1.88,0.32c0.1,0,0.39-0.04,0.85-0.12
					   c0.47-0.08,0.96-0.3,1.48-0.67s0.98-0.92,1.39-1.65c0.41-0.73,0.61-1.75,0.61-3.05v-7.32h2.01v11.13
					   c0,0.39,0.01,0.88,0.05,1.46c0.03,0.59,0.07,1.15,0.11,1.68H579.16z"/>
				   <path class="st2" d="M593.19,454.23h-4.12v8.42c0,0.53,0.05,0.96,0.15,1.3c0.1,0.34,0.24,0.59,0.43,0.78
					   c0.18,0.18,0.4,0.31,0.66,0.38c0.25,0.07,0.53,0.11,0.84,0.11c0.35,0,0.7-0.05,1.07-0.15c0.37-0.1,0.7-0.23,1.01-0.4l0.09,1.86
					   c-0.75,0.35-1.66,0.52-2.71,0.52c-0.39,0-0.79-0.05-1.21-0.15c-0.42-0.1-0.8-0.29-1.14-0.58c-0.35-0.28-0.63-0.67-0.85-1.16
					   c-0.22-0.49-0.34-1.13-0.34-1.92v-9h-3.02v-1.83h3.02v-4.03h2.01v4.03h4.12V454.23z"/>
			   </g>
		   </g>
	   </g>
   </g>
   <g id="pointMove">
	   <path class="st3" d="M506.32,274.99c0,0.09-0.01,0.18-0.01,0.27c0,4.39,3.56,7.95,7.95,7.95s7.95-3.56,7.95-7.95
		   c0-0.1-0.01-0.19-0.01-0.28C514.04,274.62,508.82,274.82,506.32,274.99"/>
	   <path class="st4" d="M333.75,458.36c0-99.74,81.14-180.88,180.88-180.88s180.88,81.14,180.88,180.88s-81.14,180.88-180.88,180.88
		   S333.75,558.11,333.75,458.36z M514.64,274.5c-101.38,0-183.86,82.48-183.86,183.86s82.48,183.86,183.86,183.86
		   S698.5,559.74,698.5,458.36S616.02,274.5,514.64,274.5z"/>
   </g>
</g>
</svg>